<svg width="2048" height="2048" viewBox="0 0 2048 2048" xmlns="http://www.w3.org/2000/svg">
  <!--
    shio app icon — dark keycap (primary)
    =====================================
    Full-bleed: the iOS squircle silhouette IS the keycap. A pronounced
    inset chamfer/bevel ring frames the dish, catching light at the top
    and falling into shadow at the bottom-right (light source upper-left,
    softened by a warm ambient at the very top edge — no LED blob).
    Kanji is the master.svg path, uniform-scaled only.
  -->
  <defs>
    <!-- Rim/body: top catches light, bottom falls into shadow. The rim
         sits OUTSIDE the dish and reads as the raised cap surface. -->
    <linearGradient id="body" x1="0" y1="0" x2="0" y2="1">
      <stop offset="0"   stop-color="#43455A"/>
      <stop offset="0.45" stop-color="#262834"/>
      <stop offset="1"   stop-color="#0B0C13"/>
    </linearGradient>
    <!-- Diagonal: subtle upper-left lift, lower-right falloff -->
    <linearGradient id="diag" x1="0" y1="0" x2="1" y2="1">
      <stop offset="0" stop-color="#FFFFFF" stop-opacity="0.06"/>
      <stop offset="1" stop-color="#000000" stop-opacity="0.22"/>
    </linearGradient>
    <!-- Warm ambient at the very top edge (the cap's top rim catching
         soft warm light from the room — replaces the LED blob). -->
    <linearGradient id="ambient" x1="0" y1="0" x2="0" y2="1">
      <stop offset="0"    stop-color="#FFD9B0" stop-opacity="0.12"/>
      <stop offset="0.14" stop-color="#FFD9B0" stop-opacity="0"/>
    </linearGradient>
    <!-- Bottom skirt shadow: the cap edge rolls under here. -->
    <linearGradient id="skirt" x1="0" y1="0.78" x2="0" y2="1">
      <stop offset="0" stop-color="#000" stop-opacity="0"/>
      <stop offset="1" stop-color="#000" stop-opacity="0.55"/>
    </linearGradient>
    <!-- Dish: concave depression inside the bevel. Slightly off-center
         high spot to keep the 3/4 light feel. -->
    <radialGradient id="dish" cx="0.48" cy="0.42" r="0.62">
      <stop offset="0"   stop-color="#1F2029"/>
      <stop offset="0.6" stop-color="#13141C"/>
      <stop offset="1"   stop-color="#06070C"/>
    </radialGradient>
    <!-- Pronounced chamfer ring around the dish: a gradient stroke that
         is bright at top (lit chamfer), darkens toward the bottom (the
         underside of the bevel in shadow). -->
    <linearGradient id="chamfer" x1="0" y1="0" x2="0" y2="1">
      <stop offset="0"    stop-color="#6E7187"/>
      <stop offset="0.45" stop-color="#1B1C25"/>
      <stop offset="1"    stop-color="#000000"/>
    </linearGradient>
    <!-- Tiny inner highlight at the top of the dish lip (the brightest
         point on the bevel — where light first catches). -->
    <linearGradient id="lip" x1="0" y1="0" x2="0" y2="1">
      <stop offset="0"   stop-color="#FFFFFF" stop-opacity="0.40"/>
      <stop offset="0.35" stop-color="#FFFFFF" stop-opacity="0"/>
    </linearGradient>
    <!-- Fine PBT grain — the close-up texture of the plastic. -->
    <filter id="grain" x="0%" y="0%" width="100%" height="100%">
      <feTurbulence type="fractalNoise" baseFrequency="2.2" numOctaves="2" seed="12" stitchTiles="stitch" result="n"/>
      <feColorMatrix in="n" values="
        0 0 0 0 1
        0 0 0 0 1
        0 0 0 0 1
        0 0 0 0.14 0"/>
    </filter>
    <!-- Coarse patina — broader blotchiness suggesting a seasoned cap. -->
    <filter id="patina" x="0%" y="0%" width="100%" height="100%">
      <feTurbulence type="fractalNoise" baseFrequency="0.6" numOctaves="2" seed="4" stitchTiles="stitch" result="n"/>
      <feColorMatrix in="n" values="
        0 0 0 0 1
        0 0 0 0 1
        0 0 0 0 1
        0 0 0 0.06 -0.5"/>
    </filter>
  </defs>

  <!-- Rim / body of the cap (everything outside the dish) -->
  <rect width="2048" height="2048" fill="url(#body)"/>
  <rect width="2048" height="2048" fill="url(#diag)"/>
  <rect width="2048" height="2048" fill="url(#ambient)"/>
  <rect width="2048" height="2048" fill="url(#skirt)"/>

  <!-- The dish + chamfer ring. Inset 144 (~7%) with rx 312.
       Stroke supplies the chamfer; fill is the dish. -->
  <rect x="144" y="144" width="1760" height="1760" rx="312"
        fill="url(#dish)" stroke="url(#chamfer)" stroke-width="10"/>

  <!-- Inner top lip highlight: a tighter inset rect with a stroke that
       only shows at the top, sold by the lip gradient + clipping it
       via a path that only covers the upper half. -->
  <rect x="152" y="152" width="1744" height="1744" rx="304"
        fill="none" stroke="url(#lip)" stroke-width="3"/>

  <!-- Coarse patina (broad uneven wear) — under the fine grain. -->
  <rect width="2048" height="2048" filter="url(#patina)" opacity="0.55"/>
  <!-- Fine grain (close-up plastic texture). -->
  <rect width="2048" height="2048" filter="url(#grain)" opacity="0.80"/>

  <!-- 塩 — master path, uniform scale 0.72, centered (287, 288).
       Rendered three times (shape untouched) to sell skeuomorphic relief:
         1) shadow copy offset +4y, dark, low opacity (catches under-stroke shadow)
         2) highlight copy offset -2y, warm cream, low opacity (catches top-edge light)
         3) the legend itself on top, original fill. -->
  <g transform="translate(287 288) scale(0.72)">
    <!-- under-stroke shadow -->
    <path transform="translate(0 5)" opacity="0.55"
          d="M982.528 814.016H923.776V885.44H840.832V801.344H912.256V658.496H982.528V516.8H1066.62V658.496H1492.86V742.592H995.2V801.344H1422.59V1098.56H982.528V814.016ZM483.712 1371.58H627.712V1027.14H483.712V944.192H627.712V588.224H710.656V944.192H853.504V1027.14H710.656V1300.16H853.504V1383.1H710.656V1454.53H483.712V1371.58ZM1338.5 1014.46V885.44H1066.62V1014.46H1338.5ZM769.408 1441.86H912.256V1157.31H1492.86V1441.86H1564.29V1527.1H769.408V1441.86ZM1409.92 1441.86V1241.41H1279.74V1441.86H1409.92ZM1053.95 1441.86V1241.41H995.2V1441.86H1053.95ZM1196.8 1441.86V1241.41H1138.05V1441.86H1196.8Z"
          fill="#000000"/>
    <!-- top-edge highlight -->
    <path transform="translate(0 -3)" opacity="0.35"
          d="M982.528 814.016H923.776V885.44H840.832V801.344H912.256V658.496H982.528V516.8H1066.62V658.496H1492.86V742.592H995.2V801.344H1422.59V1098.56H982.528V814.016ZM483.712 1371.58H627.712V1027.14H483.712V944.192H627.712V588.224H710.656V944.192H853.504V1027.14H710.656V1300.16H853.504V1383.1H710.656V1454.53H483.712V1371.58ZM1338.5 1014.46V885.44H1066.62V1014.46H1338.5ZM769.408 1441.86H912.256V1157.31H1492.86V1441.86H1564.29V1527.1H769.408V1441.86ZM1409.92 1441.86V1241.41H1279.74V1441.86H1409.92ZM1053.95 1441.86V1241.41H995.2V1441.86H1053.95ZM1196.8 1441.86V1241.41H1138.05V1441.86H1196.8Z"
          fill="#FFF5DC"/>
    <!-- legend -->
    <path d="M982.528 814.016H923.776V885.44H840.832V801.344H912.256V658.496H982.528V516.8H1066.62V658.496H1492.86V742.592H995.2V801.344H1422.59V1098.56H982.528V814.016ZM483.712 1371.58H627.712V1027.14H483.712V944.192H627.712V588.224H710.656V944.192H853.504V1027.14H710.656V1300.16H853.504V1383.1H710.656V1454.53H483.712V1371.58ZM1338.5 1014.46V885.44H1066.62V1014.46H1338.5ZM769.408 1441.86H912.256V1157.31H1492.86V1441.86H1564.29V1527.1H769.408V1441.86ZM1409.92 1441.86V1241.41H1279.74V1441.86H1409.92ZM1053.95 1441.86V1241.41H995.2V1441.86H1053.95ZM1196.8 1441.86V1241.41H1138.05V1441.86H1196.8Z" fill="#F4EEDF"/>
  </g>
</svg>
