<svg width="2048" height="2048" viewBox="0 0 2048 2048" fill="none" xmlns="http://www.w3.org/2000/svg">
<rect width="2048" height="2048" fill="#0E0E10"/>
<g clip-path="url(#clip0_1334_111)">
<path d="M982.528 814.016H923.776V885.44H840.832V801.344H912.256V658.496H982.528V516.8H1066.62V658.496H1492.86V742.592H995.2V801.344H1422.59V1098.56H982.528V814.016ZM483.712 1371.58H627.712V1027.14H483.712V944.192H627.712V588.224H710.656V944.192H853.504V1027.14H710.656V1300.16H853.504V1383.1H710.656V1454.53H483.712V1371.58ZM1338.5 1014.46V885.44H1066.62V1014.46H1338.5ZM769.408 1441.86H912.256V1157.31H1492.86V1441.86H1564.29V1527.1H769.408V1441.86ZM1409.92 1441.86V1241.41H1279.74V1441.86H1409.92ZM1053.95 1441.86V1241.41H995.2V1441.86H1053.95ZM1196.8 1441.86V1241.41H1138.05V1441.86H1196.8Z" fill="#F4EEDF"/>
</g>
<defs>
<clipPath id="clip0_1334_111">
<rect width="1081" height="1009" fill="white" transform="translate(483 519)"/>
</clipPath>
</defs>
</svg>
