<svg width="1024" height="1024" viewBox="0 0 1024 1024" fill="none" xmlns="http://www.w3.org/2000/svg">
<rect width="1024" height="1024" fill="#F4EEDF"/>
<g clip-path="url(#clip0_1325_119)">
<path d="M491.264 407.008H461.888V442.72H420.416V400.672H456.128V329.248H491.264V258.4H533.312V329.248H746.432V371.296H497.6V400.672H711.296V549.28H491.264V407.008ZM241.856 685.792H313.856V513.568H241.856V472.096H313.856V294.112H355.328V472.096H426.752V513.568H355.328V650.08H426.752V691.552H355.328V727.264H241.856V685.792ZM669.248 507.232V442.72H533.312V507.232H669.248ZM384.704 720.928H456.128V578.656H746.432V720.928H782.144V763.552H384.704V720.928ZM704.96 720.928V620.704H639.872V720.928H704.96ZM526.976 720.928V620.704H497.6V720.928H526.976ZM598.4 720.928V620.704H569.024V720.928H598.4Z" fill="#0E0E10"/>
</g>
<defs>
<clipPath id="clip0_1325_119">
<rect width="540.5" height="504.5" fill="white" transform="translate(241.5 259.5)"/>
</clipPath>
</defs>
</svg>
